<?xml version="1.0" standalone="no"?>
<!DOCTYPE svg PUBLIC "-//W3C//DTD SVG 20010904//EN"
 "http://www.w3.org/TR/2001/REC-SVG-20010904/DTD/svg10.dtd">
<svg version="1.0" xmlns="http://www.w3.org/2000/svg"
 width="512.000000pt" height="512.000000pt" viewBox="0 0 512.000000 512.000000"
 preserveAspectRatio="xMidYMid meet">

<g transform="translate(0.000000,512.000000) scale(0.100000,-0.100000)"
fill="#000000" stroke="none">
<path d="M25 4775 l-25 -24 0 -1111 0 -1111 25 -24 24 -25 796 0 c629 0 795
-3 795 -12 0 -7 -7 -51 -16 -98 -35 -193 -29 -443 16 -658 45 -215 154 -462
287 -652 85 -121 289 -324 413 -412 593 -420 1372 -436 1980 -40 176 114 351
282 473 452 80 113 195 339 237 467 249 754 -37 1576 -701 2021 -277 186 -632
292 -971 292 -87 0 -245 -14 -295 -25 l-23 -5 0 470 0 471 -25 24 -24 25
-1471 0 -1471 0 -24 -25z m275 -141 c0 -36 -98 -134 -135 -134 -3 0 -5 32 -5
70 l0 70 70 0 c39 0 70 -3 70 -6z m2283 -46 c33 -104 141 -212 245 -245 l52
-17 0 -276 0 -276 -57 -18 c-108 -33 -269 -106 -366 -166 -98 -59 -245 -169
-281 -209 l-19 -21 -842 0 -841 0 -17 53 c-33 103 -141 211 -244 244 l-53 17
0 326 0 326 53 17 c103 33 211 141 244 245 l17 52 1046 0 1046 0 17 -52z m297
-18 c0 -38 -3 -70 -6 -70 -36 0 -134 98 -134 135 0 3 32 5 70 5 l70 0 0 -70z
m735 -910 c28 -5 60 -12 72 -15 18 -4 54 -70 177 -319 l154 -315 38 -10 c22
-6 180 -31 353 -56 172 -25 317 -48 321 -50 16 -10 78 -131 115 -224 40 -101
89 -283 99 -372 l7 -56 -256 -249 c-201 -196 -255 -254 -255 -274 0 -14 27
-176 59 -360 l58 -335 -30 -35 c-87 -103 -286 -254 -435 -330 l-83 -42 -307
163 c-229 121 -316 162 -342 162 -26 0 -114 -43 -340 -163 l-305 -162 -100 51
c-55 29 -140 81 -190 116 -116 83 -265 228 -259 252 22 99 115 679 110 696 -3
13 -118 132 -256 266 l-251 244 7 56 c8 74 56 259 88 344 33 87 104 233 120
246 7 6 154 31 327 56 173 24 331 49 352 55 38 11 39 12 193 325 85 172 160
315 167 318 11 4 85 16 192 31 50 7 346 -3 400 -14z m-3417 -174 c41 -21 102
-94 102 -120 0 -3 -31 -6 -70 -6 l-70 0 0 70 c0 39 2 70 5 70 4 0 18 -6 33
-14z m1772 -326 l-32 -40 -889 0 -889 0 0 40 0 40 921 0 921 0 -32 -40z m-140
-204 c0 -3 -9 -21 -21 -40 l-21 -36 -814 0 -814 0 0 40 0 40 835 0 c459 0 835
-2 835 -4z m-127 -276 l-16 -40 -764 0 -763 0 0 40 0 40 779 0 779 0 -15 -40z"/>
<path d="M1395 4380 c-159 -52 -275 -213 -275 -380 0 -216 184 -400 400 -400
262 0 457 260 384 511 -33 113 -129 220 -232 260 -81 31 -199 35 -277 9z m231
-168 c84 -43 128 -116 128 -212 0 -138 -96 -234 -234 -234 -138 0 -234 96
-234 234 0 113 62 195 174 231 38 13 123 3 166 -19z"/>
<path d="M3299 2860 c-24 -16 -188 -134 -364 -262 -232 -170 -322 -241 -329
-261 -8 -22 12 -94 123 -439 113 -350 138 -417 162 -440 l29 -28 440 0 440 0
28 28 c25 23 50 92 162 440 112 346 132 417 124 440 -13 38 -715 552 -754 552
-9 0 -36 -13 -61 -30z"/>
</g>
</svg>
